<?xml version="1.0" encoding="UTF-8" standalone="no"?>
<!-- Created with Inkscape (http://www.inkscape.org/) -->

<svg
   width="80mm"
   height="20mm"
   viewBox="0 0 109.12453 27.281134"
   version="1.1"
   id="svg1"
   sodipodi:docname="Logo2 as Path.svg"
   inkscape:version="1.3.2 (091e20ef0f, 2023-11-25)"
   xmlns:inkscape="http://www.inkscape.org/namespaces/inkscape"
   xmlns:sodipodi="http://sodipodi.sourceforge.net/DTD/sodipodi-0.dtd"
   xmlns:xlink="http://www.w3.org/1999/xlink"
   xmlns="http://www.w3.org/2000/svg"
   xmlns:svg="http://www.w3.org/2000/svg">
  <sodipodi:namedview
     id="namedview1"
     pagecolor="#234769"
     bordercolor="#cccccc"
     borderopacity="1"
     inkscape:showpageshadow="0"
     inkscape:pageopacity="1"
     inkscape:pagecheckerboard="0"
     inkscape:deskcolor="#d1d1d1"
     inkscape:document-units="mm"
     inkscape:zoom="0.70555556"
     inkscape:cx="353.62205"
     inkscape:cy="527.24409"
     inkscape:window-width="1920"
     inkscape:window-height="1055"
     inkscape:window-x="0"
     inkscape:window-y="25"
     inkscape:window-maximized="0"
     inkscape:current-layer="layer1" />
  <defs
     id="defs1">
    <linearGradient
       id="linearGradient78"
       inkscape:collect="always">
      <stop
         style="stop-color:#da65d2;stop-opacity:1;"
         offset="0"
         id="stop78" />
      <stop
         style="stop-color:#ffc550;stop-opacity:1;"
         offset="0.47329393"
         id="stop80" />
      <stop
         style="stop-color:#1fd1eb;stop-opacity:1;"
         offset="1"
         id="stop79" />
    </linearGradient>
    <linearGradient
       inkscape:collect="always"
       xlink:href="#linearGradient78"
       id="linearGradient79"
       x1="7.299015"
       y1="16.161655"
       x2="284.83621"
       y2="16.161655"
       gradientUnits="userSpaceOnUse"
       gradientTransform="translate(12.839175,10.267093)" />
  </defs>
  <g
     inkscape:label="Layer 1"
     inkscape:groupmode="layer"
     id="layer1"
     transform="translate(-12.839175,-10.267094)">
    <path
       style="font-size:24.4289px;line-height:25.2631px;font-family:'Freehand575 BT';-inkscape-font-specification:'Freehand575 BT';letter-spacing:0px;word-spacing:0px;fill:url(#linearGradient79);stroke-width:0.264583px"
       d="m 21.943169,27.104412 q 1.383668,-0.286276 2.61227,-0.429415 1.228602,-0.155066 2.266353,-0.155066 0.667978,0 0.942326,0.166995 0.286276,0.155066 0.286276,0.512911 0,0.369773 -0.811116,0.453271 -0.429414,0.04771 -0.703762,0.0835 -1.705729,0.238563 -3.554596,0.679906 -1.836938,0.429414 -2.039717,0.429414 -0.417486,0 -0.620265,-0.274348 -0.190851,-0.274348 -0.190851,-0.834972 0,-0.644121 1.025823,-4.341855 1.025823,-3.709662 2.540701,-8.135015 0.03578,-0.09542 0.09542,-0.26242 0.477127,-1.37174 1.228602,-1.37174 0.691834,0 1.121248,0.166995 0.441343,0.166994 0.441343,0.441342 0,0.214707 -0.345917,0.739547 l -0.02386,0.04771 q -1.646088,3.805087 -2.767336,6.977981 -1.10932,3.172895 -1.50295,5.105259 z m 8.862633,-2.003933 q 0.39363,0 0.775331,-0.870757 0.39363,-0.870757 0.39363,-1.717657 0,-0.143138 -0.09542,-0.250492 -0.0835,-0.119282 -0.202779,-0.119282 -0.333989,0 -0.834972,0.858829 -0.500984,0.8469 -0.500984,1.37174 0,0.333989 0.119282,0.536768 0.13121,0.190851 0.345917,0.190851 z m -0.858828,0.417486 q -0.0835,0.310132 -0.13121,0.632193 -0.03579,0.310132 -0.03579,0.667978 0,0.679905 0.178923,1.037751 0.190851,0.345917 0.548696,0.345917 0.667978,0 1.574519,-0.834972 0.918469,-0.834973 1.598375,-2.111287 0.05964,-0.107354 0.166994,-0.322061 0.238564,-0.489055 0.369774,-0.489055 0.13121,0 0.250491,0.143138 0.119282,0.13121 0.119282,0.322061 0,0.238563 -0.286276,0.787259 -0.286276,0.548696 -0.763403,1.168961 -0.882685,1.133177 -1.658016,1.63416 -0.763403,0.489055 -1.63416,0.489055 -0.918469,0 -1.37174,-0.524839 -0.465199,-0.536768 -0.465199,-1.598376 0,-1.121248 0.536768,-2.683839 0.52484,-1.562591 1.347884,-2.767336 0.26242,-0.381702 0.560624,-0.584481 0.310132,-0.202779 0.608337,-0.202779 0.155066,0 0.310132,0.05964 0.155066,0.05964 0.357845,0.190851 0.166995,0.04771 0.429415,0.119282 0.71569,0.190851 0.71569,0.858828 0,1.50295 -0.8469,2.755408 -0.846901,1.252459 -1.753442,1.252459 -0.190851,0 -0.381701,-0.0835 -0.178923,-0.09543 -0.345917,-0.262419 z m 4.818982,-3.327961 q -0.226635,-0.143138 -0.32206,-0.26242 -0.09543,-0.119281 -0.09543,-0.274348 0,-0.381701 0.429415,-0.751475 0.429414,-0.369773 0.942325,-0.369773 0.26242,0 0.429415,0.155066 0.178922,0.143138 0.178922,0.357845 0,0.107354 -0.03578,0.274348 -0.02386,0.166995 -0.0835,0.381702 l 0.811116,0.238563 q 0.07157,-0.131209 0.190851,-0.262419 0.13121,-0.143138 0.310132,-0.286277 0.107354,-0.03578 0.190851,-0.04771 0.0835,-0.02386 0.13121,-0.02386 0.286276,0 0.572553,0.202779 0.286276,0.202779 0.286276,0.429415 0,0.178922 -0.119282,0.345917 -0.119282,0.166994 -0.39363,0.381701 -0.763403,1.264387 -1.157033,2.397563 -0.381701,1.133177 -0.381701,2.02779 0,0.286276 0.09542,0.477127 0.09543,0.178922 0.238564,0.178922 0.369773,0 0.8469,-0.572552 0.489055,-0.572552 1.013895,-1.646088 0.05964,-0.119282 0.155066,-0.322061 0.238564,-0.536768 0.405558,-0.536768 0.155066,0 0.298204,0.13121 0.143138,0.13121 0.143138,0.286277 0,0.178922 -0.202779,0.608336 -0.202779,0.429415 -0.560624,1.001967 -0.751475,1.216674 -1.264386,1.646088 -0.500983,0.429414 -1.097392,0.429414 -0.679906,0 -1.061608,-0.417486 -0.381701,-0.429414 -0.381701,-1.168961 0,-0.739547 0.238563,-1.705729 0.250492,-0.97811 0.763403,-2.242496 l -0.656049,-0.202779 q -0.620265,1.717657 -1.049679,2.457203 -0.429415,0.739547 -0.78726,0.739547 -0.143138,0 -0.226635,-0.09542 -0.09543,-0.09543 -0.09543,-0.26242 0,-0.04771 0.166995,-0.405558 0.727618,-1.622232 1.133176,-3.292176 z m 7.598247,2.206712 q -0.620265,1.013895 -1.419453,2.540701 -0.97811,1.848867 -1.467165,1.848867 -0.453271,0 -0.739547,-0.274348 -0.286276,-0.286276 -0.286276,-0.775331 0,-0.596409 0.39363,-2.159 0.381701,-1.56259 0.97811,-2.970115 0.202779,-0.489055 0.381701,-0.644121 0.190851,-0.155066 0.512912,-0.155066 0.274348,0 0.500983,0.166994 0.238564,0.155066 0.238564,0.369773 0,0.04771 -0.155067,0.369774 -1.001966,2.051646 -1.407524,4.389568 1.586447,-3.053613 2.469132,-4.365712 0.894613,-1.324027 1.359812,-1.324027 0.381701,0 0.71569,0.26242 0.333989,0.262419 0.333989,0.596408 0,0.202779 -0.238564,0.39363 -0.238563,0.190851 -0.250491,0.190851 -0.05964,0.0835 -0.226635,0.52484 -0.166995,0.429414 -0.357846,1.037751 -0.250491,0.858828 -0.405558,1.658016 -0.155066,0.787259 -0.155066,1.168961 0,0.250491 0.05964,0.39363 0.07157,0.143138 0.190851,0.143138 0.381701,0 1.455237,-1.825011 0.190851,-0.333989 0.298204,-0.512911 0.03578,-0.05964 0.09543,-0.190851 0.119281,-0.274348 0.32206,-0.274348 0.119282,0 0.310133,0.178922 0.202779,0.166995 0.202779,0.286277 0,0.238563 -0.560624,1.252458 -0.548696,1.013895 -1.228602,1.705729 -0.238564,0.238563 -0.489055,0.357845 -0.250492,0.13121 -0.512912,0.13121 -0.608337,0 -0.954254,-0.500984 -0.333989,-0.500983 -0.333989,-1.407524 0,-0.417486 0.0835,-1.061607 0.09542,-0.644122 0.286276,-1.526807 z m 2.636126,3.13711 q 0.417486,0.202779 0.846901,0.369773 0.429414,0.155067 0.906541,0.298205 0,-0.322061 -0.226635,-1.347884 -0.214707,-1.025823 -0.310133,-1.753441 -0.178922,0.548696 -0.477127,1.157032 -0.298204,0.596409 -0.739547,1.276315 z m -0.548696,0.823044 q -0.07157,0.04771 -0.214707,0.143138 -0.417486,0.286276 -0.536768,0.286276 -0.166994,0 -0.226635,-0.13121 -0.07157,-0.13121 -0.07157,-0.477127 0,-0.04771 0.238564,-0.369773 2.099358,-2.934331 2.946259,-6.787131 0,-0.04771 0.01193,-0.143138 0.01193,-0.09542 0.01193,-0.119282 0,-0.310132 0.143138,-0.489055 0.143138,-0.178922 0.39363,-0.178922 0.298204,0 0.739546,0.274348 0.453271,0.262419 0.453271,0.441342 0,0.01193 -0.0835,0.119282 -0.966182,1.204745 -0.966182,3.005899 0,0.894614 0.357845,2.29021 0.369773,1.395596 0.369773,1.908508 0,0.667977 -0.369773,1.133176 -0.357845,0.477127 -0.775331,0.477127 -0.39363,0 -1.192818,-0.608337 -0.811116,-0.608337 -1.228602,-0.775331 z m 5.725524,-1.216674 q 0.03578,0.333989 0.26242,0.560624 0.238563,0.214708 0.536767,0.214708 0.465199,0 0.823044,-0.39363 0.369774,-0.405558 0.763403,-1.37174 0.310133,-0.751475 0.477127,-1.443309 0.166995,-0.703762 0.166995,-1.264387 0,-0.369773 -0.09543,-0.560624 -0.09542,-0.202779 -0.274348,-0.202779 -0.429414,0 -1.252458,1.300171 -0.823044,1.300171 -1.407524,3.160966 z m 0.954254,-4.11522 q 0.620265,-0.906541 1.037751,-1.288242 0.429414,-0.39363 0.787259,-0.39363 0.632193,0 1.037751,0.620265 0.405558,0.608337 0.405558,1.598375 0,2.015861 -1.013895,3.673878 -1.013894,1.658016 -2.182855,1.658016 -0.453271,0 -0.846901,-0.238564 -0.381701,-0.238563 -0.524839,-0.596408 -0.512912,2.242496 -0.799188,3.72159 -0.298204,1.479093 -0.298204,1.872723 0,0.155066 0.107353,0.286276 0.107354,0.13121 0.107354,0.155067 0,0.19085 -0.155066,0.32206 -0.155067,0.143138 -0.357846,0.143138 -0.45327,0 -0.691834,-0.190851 -0.238563,-0.19085 -0.238563,-0.572552 0,-0.608337 0.572552,-3.316032 0.560624,-2.695767 1.431381,-5.987943 0.119282,-0.429415 0.322061,-1.192818 0.954254,-3.566524 1.514878,-3.566524 0.226635,0 0.417486,0.143138 0.190851,0.143139 0.190851,0.345917 0,0.155067 -0.310133,1.097392 -0.310132,0.930398 -0.512911,1.705729 z m 6.298074,-1.753441 q -0.369773,0 -0.596409,-0.190851 -0.226635,-0.190851 -0.226635,-0.52484 0,-0.441342 0.465199,-0.727618 0.465198,-0.298205 0.966182,-0.298205 0.32206,0 0.477127,0.155067 0.166994,0.155066 0.166994,0.45327 0,0.429415 -0.39363,0.78726 -0.381701,0.345917 -0.858828,0.345917 z m -0.930398,7.514749 q -0.632193,0 -1.001966,-0.536768 -0.381702,-0.536767 -0.381702,-1.467165 0,-1.085464 0.357845,-2.48106 0.357846,-1.395596 0.715691,-1.908508 0.143138,-0.226635 0.45327,-0.357845 0.310133,-0.13121 0.691835,-0.13121 0.214707,0 0.333988,0.107354 0.13121,0.09543 0.13121,0.286276 0,0.07157 -0.166994,0.500983 -0.107354,0.286276 -0.178923,0.477127 l -0.155066,0.441342 q -1.013895,2.767337 -1.013895,3.483027 0,0.274348 0.09543,0.405558 0.107353,0.13121 0.32206,0.13121 0.310133,0 0.894613,-0.596409 0.584481,-0.596408 1.157033,-1.550662 0.07157,-0.13121 0.202779,-0.381702 0.202779,-0.39363 0.310133,-0.39363 0.143138,0 0.286276,0.143138 0.155066,0.13121 0.155066,0.322061 0,0.0835 -0.417486,0.78726 -0.202779,0.345917 -0.322061,0.548696 -0.691834,1.180889 -1.264386,1.681872 -0.572552,0.489055 -1.204746,0.489055 z m 4.37764,-3.685805 q 0.39363,0 0.775331,-0.870757 0.39363,-0.870757 0.39363,-1.717657 0,-0.143138 -0.09542,-0.250492 -0.0835,-0.119282 -0.202779,-0.119282 -0.333989,0 -0.834973,0.858829 -0.500983,0.8469 -0.500983,1.37174 0,0.333989 0.119282,0.536768 0.13121,0.190851 0.345917,0.190851 z m -0.858829,0.417486 q -0.0835,0.310132 -0.131209,0.632193 -0.03578,0.310132 -0.03578,0.667978 0,0.679905 0.178923,1.037751 0.19085,0.345917 0.548696,0.345917 0.667977,0 1.574519,-0.834972 0.918469,-0.834973 1.598375,-2.111287 0.05964,-0.107354 0.166994,-0.322061 0.238564,-0.489055 0.369774,-0.489055 0.13121,0 0.250491,0.143138 0.119282,0.13121 0.119282,0.322061 0,0.238563 -0.286276,0.787259 -0.286276,0.548696 -0.763403,1.168961 -0.882685,1.133177 -1.658016,1.63416 -0.763404,0.489055 -1.63416,0.489055 -0.91847,0 -1.37174,-0.524839 -0.465199,-0.536768 -0.465199,-1.598376 0,-1.121248 0.536768,-2.683839 0.524839,-1.562591 1.347883,-2.767336 0.26242,-0.381702 0.560625,-0.584481 0.310132,-0.202779 0.608336,-0.202779 0.155067,0 0.310133,0.05964 0.155066,0.05964 0.357845,0.190851 0.166995,0.04771 0.429414,0.119282 0.715691,0.190851 0.715691,0.858828 0,1.50295 -0.8469,2.755408 -0.846901,1.252459 -1.753442,1.252459 -0.190851,0 -0.381702,-0.0835 -0.178922,-0.09543 -0.345917,-0.262419 z m 6.119154,-1.753442 q 1.526806,-2.87469 2.504917,-5.379606 0.97811,-2.504917 0.97811,-3.220607 0,-0.13121 -0.05964,-0.202779 -0.05964,-0.07157 -0.155066,-0.07157 -0.03579,0 -0.155067,0.03578 -0.04771,0.01193 -0.05964,0.01193 -1.001967,2.552629 -1.76537,4.759341 -0.763403,2.206712 -1.288243,4.067507 z m -1.598375,2.123215 q -0.107354,0.02386 -0.155066,0.03579 -0.04771,0 -0.107354,0.01193 -0.214707,0 -0.357845,-0.214707 -0.155067,-0.226636 -0.155067,-0.477127 0,-0.178923 0.405558,-0.238564 0.405558,-0.05964 0.691834,-0.345917 0.691835,-2.636126 1.479094,-5.129115 0.787259,-2.492988 1.669944,-4.842838 -0.01193,-0.04771 -0.02386,-0.09543 0,-0.04771 0,-0.143138 0,-0.298204 0.405558,-0.58448 0.417486,-0.286276 0.799188,-0.286276 0.500983,0 1.013894,0.512911 0.52484,0.500983 0.52484,0.91847 0,1.061607 -1.347884,4.079435 -1.347883,3.0059 -3.471098,6.190722 -0.07157,0.405558 -0.107354,0.739547 -0.03578,0.322061 -0.03578,0.596409 0,0.799187 0.143138,1.133176 0.155066,0.333989 0.489055,0.333989 0.322061,0 0.71569,-0.405558 0.39363,-0.405558 0.966182,-1.324027 0.226636,-0.357845 0.489055,-0.858829 0.274348,-0.512911 0.369774,-0.512911 0.119282,0 0.322061,0.178922 0.214707,0.166995 0.214707,0.286277 0,0.02386 -0.02386,0.07157 -0.01193,0.04771 -0.04771,0.119281 -0.691834,1.359812 -1.037751,1.89658 -0.345917,0.536768 -0.667978,0.870757 -0.381702,0.369773 -0.739547,0.536767 -0.345917,0.166995 -0.751475,0.166995 -0.656049,0 -1.204745,-0.65605 -0.536768,-0.656049 -0.536768,-1.467165 0,-0.298204 0.01193,-0.560624 0.02386,-0.274348 0.05964,-0.536768 z m 12.834716,-1.097392 q 0,1.407525 0.679906,2.194784 0.679906,0.775331 1.908508,0.775331 1.192817,0 2.34985,-0.811116 1.168961,-0.811115 2.099359,-2.290209 0.930397,-1.491022 1.502949,-3.423386 0.572553,-1.944292 0.572553,-3.578452 0,-1.335955 -0.500984,-2.027789 -0.489055,-0.691834 -1.455237,-0.691834 -0.870756,0 -1.777298,0.548696 -0.894613,0.536767 -1.836938,1.622231 -1.681873,1.968149 -2.61227,3.98401 -0.930398,2.015862 -0.930398,3.697734 z m 7.765241,-10.759213 q 1.407525,0.202779 2.135143,1.228602 0.727619,1.013895 0.727619,2.779265 0,1.37174 -0.417486,3.053612 -0.417486,1.669944 -1.145105,3.160966 -1.085464,2.194784 -2.731552,3.518811 -1.634159,1.3121 -3.232535,1.3121 -0.894613,0 -1.968148,-0.405558 -1.061608,-0.405558 -1.598376,-0.942326 -0.596408,-0.536768 -0.906541,-1.383668 -0.310132,-0.858829 -0.310132,-1.956221 0,-1.574519 0.656049,-3.339888 0.65605,-1.76537 1.908508,-3.506883 1.359812,-1.908508 2.862762,-3.101326 1.50295,-1.192817 2.433347,-1.192817 0.39363,0 0.751475,0.178923 0.357845,0.166994 0.834972,0.596408 z m 6.166863,10.365583 q -0.620265,1.013895 -1.419453,2.540701 -0.97811,1.848867 -1.467165,1.848867 -0.453271,0 -0.739547,-0.274348 -0.286276,-0.286276 -0.286276,-0.775331 0,-0.596409 0.393629,-2.159 0.381702,-1.56259 0.978111,-2.970115 0.202779,-0.489055 0.381701,-0.644121 0.190851,-0.155066 0.512912,-0.155066 0.274348,0 0.500983,0.166994 0.238563,0.155066 0.238563,0.369773 0,0.04771 -0.155066,0.369774 -1.001966,2.051646 -1.407524,4.389568 1.586447,-3.053613 2.469132,-4.365712 0.894613,-1.324027 1.359811,-1.324027 0.381702,0 0.715691,0.26242 0.333989,0.262419 0.333989,0.596408 0,0.202779 -0.238564,0.39363 -0.238563,0.190851 -0.250491,0.190851 -0.05964,0.0835 -0.226636,0.52484 -0.166994,0.429414 -0.357845,1.037751 -0.250492,0.858828 -0.405558,1.658016 -0.155066,0.787259 -0.155066,1.168961 0,0.250491 0.05964,0.39363 0.07157,0.143138 0.190851,0.143138 0.381701,0 1.455237,-1.825011 0.190851,-0.333989 0.298204,-0.512911 0.03579,-0.05964 0.09543,-0.190851 0.119282,-0.274348 0.322061,-0.274348 0.119282,0 0.310133,0.178922 0.202779,0.166995 0.202779,0.286277 0,0.238563 -0.560625,1.252458 -0.548696,1.013895 -1.228601,1.705729 -0.238564,0.238563 -0.489056,0.357845 -0.250491,0.13121 -0.512911,0.13121 -0.608337,0 -0.954254,-0.500984 -0.333989,-0.500983 -0.333989,-1.407524 0,-0.417486 0.0835,-1.061607 0.09543,-0.644122 0.286277,-1.526807 z m 5.176831,-0.632193 q 1.526806,-2.87469 2.504916,-5.379606 0.978111,-2.504917 0.978111,-3.220607 0,-0.13121 -0.05964,-0.202779 -0.05964,-0.07157 -0.155066,-0.07157 -0.03579,0 -0.155067,0.03578 -0.04771,0.01193 -0.05964,0.01193 -1.001966,2.552629 -1.765369,4.759341 -0.763403,2.206712 -1.288243,4.067507 z m -1.598375,2.123215 q -0.107354,0.02386 -0.155067,0.03579 -0.04771,0 -0.107353,0.01193 -0.214707,0 -0.357845,-0.214707 -0.155067,-0.226636 -0.155067,-0.477127 0,-0.178923 0.405558,-0.238564 0.405558,-0.05964 0.691834,-0.345917 0.691834,-2.636126 1.479094,-5.129115 0.787259,-2.492988 1.669944,-4.842838 -0.01193,-0.04771 -0.02386,-0.09543 0,-0.04771 0,-0.143138 0,-0.298204 0.405558,-0.58448 0.417486,-0.286276 0.799187,-0.286276 0.50098,0 1.0139,0.512911 0.52483,0.500983 0.52483,0.91847 0,1.061607 -1.347879,4.079435 -1.347883,3.0059 -3.471098,6.190722 -0.07157,0.405558 -0.107354,0.739547 -0.03578,0.322061 -0.03578,0.596409 0,0.799187 0.143138,1.133176 0.155066,0.333989 0.489055,0.333989 0.32206,0 0.71569,-0.405558 0.39363,-0.405558 0.966182,-1.324027 0.226636,-0.357845 0.489055,-0.858829 0.274348,-0.512911 0.369774,-0.512911 0.119281,0 0.32206,0.178922 0.214708,0.166995 0.214708,0.286277 0,0.02386 -0.02386,0.07157 -0.01193,0.04771 -0.04771,0.119281 -0.691835,1.359812 -1.037752,1.89658 -0.345917,0.536768 -0.667977,0.870757 -0.381702,0.369773 -0.739547,0.536767 -0.345917,0.166995 -0.751475,0.166995 -0.65605,0 -1.204746,-0.65605 -0.536767,-0.656049 -0.536767,-1.467165 0,-0.298204 0.01193,-0.560624 0.02386,-0.274348 0.05964,-0.536768 z m 6.286147,-4.616203 q -0.36978,0 -0.59641,-0.190851 -0.22664,-0.190851 -0.22664,-0.52484 0,-0.441342 0.4652,-0.727618 0.4652,-0.298205 0.96618,-0.298205 0.32206,0 0.47713,0.155067 0.167,0.155066 0.167,0.45327 0,0.429415 -0.39363,0.78726 -0.38171,0.345917 -0.85883,0.345917 z m -0.9304,7.514749 q -0.632194,0 -1.001967,-0.536768 -0.381702,-0.536767 -0.381702,-1.467165 0,-1.085464 0.357845,-2.48106 0.357846,-1.395596 0.715691,-1.908508 0.143133,-0.226635 0.453273,-0.357845 0.31013,-0.13121 0.69183,-0.13121 0.21471,0 0.33399,0.107354 0.13121,0.09543 0.13121,0.286276 0,0.07157 -0.16699,0.500983 -0.10736,0.286276 -0.17893,0.477127 l -0.15506,0.441342 q -1.0139,2.767337 -1.0139,3.483027 0,0.274348 0.0954,0.405558 0.10735,0.13121 0.32206,0.13121 0.31013,0 0.89461,-0.596409 0.58448,-0.596408 1.15703,-1.550662 0.0716,-0.13121 0.20278,-0.381702 0.20278,-0.39363 0.31014,-0.39363 0.14313,0 0.28627,0.143138 0.15507,0.13121 0.15507,0.322061 0,0.0835 -0.41749,0.78726 -0.20278,0.345917 -0.32206,0.548696 -0.69183,1.180889 -1.26439,1.681872 -0.57255,0.489055 -1.20474,0.489055 z m 5.86866,-4.389568 q -0.62026,1.013895 -1.41945,2.540701 -0.97811,1.848867 -1.46717,1.848867 -0.45327,0 -0.73954,-0.274348 -0.28628,-0.286276 -0.28628,-0.775331 0,-0.596409 0.39363,-2.159 0.3817,-1.56259 0.97811,-2.970115 0.20278,-0.489055 0.3817,-0.644121 0.19085,-0.155066 0.51291,-0.155066 0.27435,0 0.50099,0.166994 0.23856,0.155066 0.23856,0.369773 0,0.04771 -0.15507,0.369774 -1.00196,2.051646 -1.40752,4.389568 1.58645,-3.053613 2.46913,-4.365712 0.89461,-1.324027 1.35981,-1.324027 0.3817,0 0.71569,0.26242 0.33399,0.262419 0.33399,0.596408 0,0.202779 -0.23856,0.39363 -0.23857,0.190851 -0.25049,0.190851 -0.0596,0.0835 -0.22664,0.52484 -0.16699,0.429414 -0.35784,1.037751 -0.2505,0.858828 -0.40556,1.658016 -0.15507,0.787259 -0.15507,1.168961 0,0.250491 0.0596,0.39363 0.0716,0.143138 0.19085,0.143138 0.38171,0 1.45524,-1.825011 0.19085,-0.333989 0.29821,-0.512911 0.0358,-0.05964 0.0954,-0.190851 0.11928,-0.274348 0.32206,-0.274348 0.11928,0 0.31013,0.178922 0.20278,0.166995 0.20278,0.286277 0,0.238563 -0.56062,1.252458 -0.5487,1.013895 -1.2286,1.705729 -0.23857,0.238563 -0.48906,0.357845 -0.25049,0.13121 -0.51291,0.13121 -0.60834,0 -0.95425,-0.500984 -0.33399,-0.500983 -0.33399,-1.407524 0,-0.417486 0.0835,-1.061607 0.0954,-0.644122 0.28628,-1.526807 z m 4.7832,0.703763 q 0.39363,0 0.77533,-0.870757 0.39363,-0.870757 0.39363,-1.717657 0,-0.143138 -0.0954,-0.250492 -0.0835,-0.119282 -0.20278,-0.119282 -0.33399,0 -0.83497,0.858829 -0.50099,0.8469 -0.50099,1.37174 0,0.333989 0.11929,0.536768 0.13121,0.190851 0.34591,0.190851 z m -0.85883,0.417486 q -0.0835,0.310132 -0.13121,0.632193 -0.0358,0.310132 -0.0358,0.667978 0,0.679905 0.17892,1.037751 0.19085,0.345917 0.5487,0.345917 0.66798,0 1.57452,-0.834972 0.91847,-0.834973 1.59837,-2.111287 0.0596,-0.107354 0.167,-0.322061 0.23856,-0.489055 0.36977,-0.489055 0.13121,0 0.25049,0.143138 0.11928,0.13121 0.11928,0.322061 0,0.238563 -0.28627,0.787259 -0.28628,0.548696 -0.76341,1.168961 -0.88268,1.133177 -1.65801,1.63416 -0.76341,0.489055 -1.63416,0.489055 -0.91847,0 -1.37174,-0.524839 -0.4652,-0.536768 -0.4652,-1.598376 0,-1.121248 0.53677,-2.683839 0.52484,-1.562591 1.34788,-2.767336 0.26242,-0.381702 0.56062,-0.584481 0.31014,-0.202779 0.60834,-0.202779 0.15507,0 0.31013,0.05964 0.15507,0.05964 0.35785,0.190851 0.16699,0.04771 0.42941,0.119282 0.71569,0.190851 0.71569,0.858828 0,1.50295 -0.8469,2.755408 -0.8469,1.252459 -1.75344,1.252459 -0.19085,0 -0.3817,-0.0835 -0.17892,-0.09543 -0.34592,-0.262419 z"
       id="text1"
       aria-label="Lernspiel Online" />
  </g>
</svg>
