<?xml version="1.0" encoding="UTF-8" standalone="no"?>
<!-- Created with Inkscape (http://www.inkscape.org/) -->

<svg
   width="277.5372mm"
   height="21.993511mm"
   viewBox="0 0 378.57148 30"
   version="1.1"
   id="svg1"
   inkscape:version="1.3.2 (091e20ef0f, 2023-11-25)"
   sodipodi:docname="Logo as Path.svg"
   xmlns:inkscape="http://www.inkscape.org/namespaces/inkscape"
   xmlns:sodipodi="http://sodipodi.sourceforge.net/DTD/sodipodi-0.dtd"
   xmlns:xlink="http://www.w3.org/1999/xlink"
   xmlns="http://www.w3.org/2000/svg"
   xmlns:svg="http://www.w3.org/2000/svg">
  <sodipodi:namedview
     id="namedview1"
     pagecolor="#234769"
     bordercolor="#cccccc"
     borderopacity="1"
     inkscape:showpageshadow="0"
     inkscape:pageopacity="1"
     inkscape:pagecheckerboard="0"
     inkscape:deskcolor="#d1d1d1"
     inkscape:document-units="mm"
     inkscape:zoom="0.70555556"
     inkscape:cx="369.2126"
     inkscape:cy="541.41732"
     inkscape:window-width="1920"
     inkscape:window-height="1055"
     inkscape:window-x="0"
     inkscape:window-y="25"
     inkscape:window-maximized="0"
     inkscape:current-layer="layer1" />
  <defs
     id="defs1">
    <linearGradient
       id="linearGradient78"
       inkscape:collect="always">
      <stop
         style="stop-color:#da65d2;stop-opacity:1;"
         offset="0"
         id="stop78" />
      <stop
         style="stop-color:#ffc550;stop-opacity:1;"
         offset="0.47329393"
         id="stop80" />
      <stop
         style="stop-color:#1fd1eb;stop-opacity:1;"
         offset="1"
         id="stop79" />
    </linearGradient>
    <linearGradient
       inkscape:collect="always"
       xlink:href="#linearGradient78"
       id="linearGradient79"
       x1="7.299015"
       y1="16.161655"
       x2="284.83621"
       y2="16.161655"
       gradientUnits="userSpaceOnUse"
       gradientTransform="translate(7.2990147,5.164899)" />
  </defs>
  <g
     inkscape:label="Layer 1"
     inkscape:groupmode="layer"
     id="layer1"
     transform="translate(-7.299015,-5.1648993)">
    <path
       style="font-size:24.4289px;line-height:25.2631px;font-family:Keystroke;-inkscape-font-specification:Keystroke;letter-spacing:0px;word-spacing:0px;fill:url(#linearGradient79);stroke-width:0.264583px"
       d="m 44.35739,9.9782399 q 0.733582,0 1.413488,0.4711631 0.68587,0.465199 0.68587,1.628195 v 16.222317 q 0,0.829008 -0.626229,1.443309 -0.620265,0.608337 -1.473129,0.608337 H 28.182786 q -0.852864,0 -1.479094,-0.608337 -0.620265,-0.614301 -0.620265,-1.443309 V 12.077598 q 0,-0.852864 0.632194,-1.473129 0.638157,-0.6262291 1.467165,-0.6262291 z M 43.916047,12.88275 q -0.483091,-0.656049 -1.27035,-0.656049 H 30.628062 q -0.81708,0 -1.556627,0.751475 -0.739547,0.751475 -0.739547,1.544698 v 12.017635 q 0,0.721655 0.512912,1.198782 0.483091,0.363809 1.049679,0.363809 h 12.751218 q 0.632193,0 1.097392,-0.465199 0.465198,-0.465199 0.465198,-1.097392 V 13.789291 q 0,-0.542732 -0.29224,-0.906541 z m -15.780974,1.640124 v -0.733583 q 0,-0.900577 0.405558,-1.329991 0.411522,-0.429414 1.306135,-0.429414 h 0.781296 12.017635 q 0.894613,0 1.419452,0.662013 l 1.246494,-1.222637 q 0.190851,-0.202779 0.190851,-0.417486 0,-0.339953 -0.345917,-0.584481 -0.339953,-0.244528 -0.799187,-0.244528 H 28.182786 q -0.500983,0 -0.936362,0.26242 -0.429414,0.26242 -0.673941,0.697798 -0.244528,0.429415 -0.244528,0.894613 v 16.174604 q 0,1.025823 0.68587,1.025823 0.328025,0 0.560624,-0.220671 l 1.121248,-1.151069 q -0.560624,-0.411522 -0.560624,-1.365776 z m 5.546601,10.013702 v -9.059448 h 1.270351 v 8.009769 h 4.347819 v 1.049679 z M 49.510361,14.522874 v -0.733583 q 0,-0.900577 0.405558,-1.329991 0.411522,-0.429414 1.306135,-0.429414 h 0.781296 12.017635 q 0.894613,0 1.419452,0.662013 l 1.246494,-1.222637 q 0.190851,-0.202779 0.190851,-0.417486 0,-0.339953 -0.345917,-0.584481 -0.339953,-0.244528 -0.799187,-0.244528 H 49.558074 q -0.500983,0 -0.936362,0.26242 -0.429414,0.26242 -0.673941,0.697798 -0.244528,0.429415 -0.244528,0.894613 v 16.174604 q 0,1.025823 0.68587,1.025823 0.328025,0 0.560624,-0.220671 l 1.121248,-1.151069 Q 49.510361,27.494763 49.510361,26.540509 Z M 65.291335,12.88275 q -0.483091,-0.656049 -1.27035,-0.656049 H 52.00335 q -0.81708,0 -1.556627,0.751475 -0.739547,0.751475 -0.739547,1.544698 v 12.017635 q 0,0.721655 0.512912,1.198782 0.483091,0.363809 1.049679,0.363809 h 12.751218 q 0.632193,0 1.097392,-0.465199 0.465198,-0.465199 0.465198,-1.097392 V 13.789291 q 0,-0.542732 -0.29224,-0.906541 z m 0.441343,-2.9045101 q 0.733582,0 1.413488,0.4711631 0.68587,0.465199 0.68587,1.628195 v 16.222317 q 0,0.829008 -0.626229,1.443309 -0.620265,0.608337 -1.473129,0.608337 H 49.558074 q -0.852864,0 -1.479094,-0.608337 -0.620265,-0.614301 -0.620265,-1.443309 V 12.077598 q 0,-0.852864 0.632194,-1.473129 0.638157,-0.6262291 1.467165,-0.6262291 z M 54.663332,24.536576 v -9.059448 h 6.256327 v 0.996002 h -5.105258 v 2.910475 h 4.908444 v 1.049679 h -4.908444 v 3.053613 h 5.302073 v 1.049679 z M 87.107966,9.9782399 q 0.733582,0 1.413488,0.4711631 0.68587,0.465199 0.68587,1.628195 v 16.222317 q 0,0.829008 -0.626229,1.443309 -0.620265,0.608337 -1.473129,0.608337 H 70.933362 q -0.852864,0 -1.479094,-0.608337 -0.620265,-0.614301 -0.620265,-1.443309 V 12.077598 q 0,-0.852864 0.632194,-1.473129 0.638157,-0.6262291 1.467165,-0.6262291 z M 86.666623,12.88275 q -0.483091,-0.656049 -1.27035,-0.656049 H 73.378638 q -0.81708,0 -1.556627,0.751475 -0.739547,0.751475 -0.739547,1.544698 v 12.017635 q 0,0.721655 0.512912,1.198782 0.483091,0.363809 1.049679,0.363809 h 12.751218 q 0.632193,0 1.097392,-0.465199 0.465198,-0.465199 0.465198,-1.097392 V 13.789291 q 0,-0.542732 -0.29224,-0.906541 z m -15.780974,1.640124 v -0.733583 q 0,-0.900577 0.405558,-1.329991 0.411522,-0.429414 1.306135,-0.429414 h 0.781296 12.017635 q 0.894613,0 1.419452,0.662013 l 1.246494,-1.222637 q 0.190851,-0.202779 0.190851,-0.417486 0,-0.339953 -0.345917,-0.584481 Q 87.5672,10.222767 87.107966,10.222767 H 70.933362 q -0.500983,0 -0.936362,0.26242 -0.429414,0.26242 -0.673941,0.697798 -0.244528,0.429415 -0.244528,0.894613 v 16.174604 q 0,1.025823 0.68587,1.025823 0.328025,0 0.560624,-0.220671 l 1.121248,-1.151069 q -0.560624,-0.411522 -0.560624,-1.365776 z m 4.813018,10.013702 v -9.059448 h 4.592347 q 0.94829,0 1.622232,0.638157 0.673942,0.638158 0.799188,1.681873 0,0.733582 -0.250492,1.300171 -0.244528,0.566588 -1.019859,0.942325 1.073536,0.55466 1.073536,2.153036 v 0.709726 q 0,1.043715 0.489055,1.34192 v 0.29224 h -1.467166 q -0.196814,-0.512912 -0.208743,-1.610304 -0.006,-1.097392 -0.238563,-1.622231 -0.232599,-0.530804 -1.192817,-0.673942 h -3.053613 v 3.906477 z m 1.145105,-4.956156 h 3.155002 q 0.632193,0 1.061608,-0.471163 0.429414,-0.477127 0.429414,-1.067572 0,-0.596408 -0.447307,-1.00793 -0.447306,-0.411522 -1.383668,-0.459235 H 76.843772 Z M 108.48325,9.9782399 q 0.73358,0 1.41349,0.4711631 0.68587,0.465199 0.68587,1.628195 v 16.222317 q 0,0.829008 -0.62623,1.443309 -0.62026,0.608337 -1.47313,0.608337 H 92.308648 q -0.852864,0 -1.479093,-0.608337 Q 90.20929,29.128923 90.20929,28.299915 V 12.077598 q 0,-0.852864 0.632193,-1.473129 0.638157,-0.6262291 1.467165,-0.6262291 z m -0.44134,2.9045101 q -0.48309,-0.656049 -1.27035,-0.656049 H 94.753924 q -0.81708,0 -1.556627,0.751475 -0.739547,0.751475 -0.739547,1.544698 v 12.017635 q 0,0.721655 0.512912,1.198782 0.483091,0.363809 1.049679,0.363809 h 12.751219 q 0.63219,0 1.09739,-0.465199 0.4652,-0.465199 0.4652,-1.097392 V 13.789291 q 0,-0.542732 -0.29224,-0.906541 z m -15.780975,1.640124 v -0.733583 q 0,-0.900577 0.405558,-1.329991 0.411522,-0.429414 1.306135,-0.429414 h 0.781296 12.017636 q 0.89461,0 1.41945,0.662013 l 1.2465,-1.222637 q 0.19085,-0.202779 0.19085,-0.417486 0,-0.339953 -0.34592,-0.584481 -0.33995,-0.244528 -0.79919,-0.244528 H 92.308648 q -0.500983,0 -0.936362,0.26242 -0.429414,0.26242 -0.673941,0.697798 -0.244528,0.429415 -0.244528,0.894613 v 16.174604 q 0,1.025823 0.68587,1.025823 0.328025,0 0.560624,-0.220671 l 1.121249,-1.151069 q -0.560625,-0.411522 -0.560625,-1.365776 z m 4.616204,10.013702 v -9.059448 h 1.443309 l 4.496922,7.276186 v -7.276186 h 1.16896 v 9.059448 h -1.36578 l -4.592343,-7.204617 v 7.204617 z M 113.63623,14.522874 v -0.733583 q 0,-0.900577 0.40555,-1.329991 0.41153,-0.429414 1.30614,-0.429414 h 0.78129 12.01764 q 0.89461,0 1.41945,0.662013 l 1.2465,-1.222637 q 0.19085,-0.202779 0.19085,-0.417486 0,-0.339953 -0.34592,-0.584481 -0.33995,-0.244528 -0.79919,-0.244528 h -16.1746 q -0.50099,0 -0.93636,0.26242 -0.42942,0.26242 -0.67395,0.697798 -0.24452,0.429415 -0.24452,0.894613 v 16.174604 q 0,1.025823 0.68587,1.025823 0.32802,0 0.56062,-0.220671 l 1.12125,-1.151069 q -0.56062,-0.411522 -0.56062,-1.365776 z M 129.4172,12.88275 q -0.48309,-0.656049 -1.27035,-0.656049 h -12.01764 q -0.81708,0 -1.55662,0.751475 -0.73955,0.751475 -0.73955,1.544698 v 12.017635 q 0,0.721655 0.51291,1.198782 0.48309,0.363809 1.04968,0.363809 h 12.75122 q 0.63219,0 1.09739,-0.465199 0.4652,-0.465199 0.4652,-1.097392 V 13.789291 q 0,-0.542732 -0.29224,-0.906541 z m 0.44134,-2.9045101 q 0.73358,0 1.41349,0.4711631 0.68587,0.465199 0.68587,1.628195 v 16.222317 q 0,0.829008 -0.62623,1.443309 -0.62026,0.608337 -1.47313,0.608337 h -16.1746 q -0.85287,0 -1.4791,-0.608337 -0.62026,-0.614301 -0.62026,-1.443309 V 12.077598 q 0,-0.852864 0.63219,-1.473129 0.63816,-0.6262291 1.46717,-0.6262291 z M 118.20472,21.632066 h 1.15106 q 0,1.067571 0.72762,1.622231 0.72762,0.548696 1.73555,0.548696 0.82305,0 1.47313,-0.381701 0.65009,-0.381702 0.75148,-1.031787 0,-0.906542 -0.64412,-1.24053 -0.63816,-0.333989 -2.03972,-0.68587 -1.40156,-0.357846 -2.13515,-0.91847 -0.72761,-0.566588 -0.72761,-1.848867 0.0895,-0.990038 0.9125,-1.652052 0.82901,-0.667978 2.29021,-0.667978 1.52084,0 2.43335,0.703763 0.9125,0.703762 0.9125,2.009897 h -1.19878 q 0,-0.829008 -0.64412,-1.294207 -0.64412,-0.465199 -1.52681,-0.465199 -0.81708,0 -1.40752,0.405558 -0.58448,0.405558 -0.62027,1.157033 0.10139,0.673942 0.68587,0.91847 0.59045,0.238563 2.01587,0.578516 1.43138,0.339953 2.18285,0.840936 0.75744,0.500983 0.87672,1.568555 0,0.966182 -0.51291,1.658016 -0.51291,0.691834 -1.34788,1.043715 -0.83497,0.351882 -1.7773,0.351882 -0.93636,0 -1.75344,-0.357846 -0.81708,-0.363809 -1.31806,-1.091428 -0.49502,-0.733582 -0.49502,-1.771333 z M 151.23383,9.9782399 q 0.73358,0 1.41349,0.4711631 0.68587,0.465199 0.68587,1.628195 v 16.222317 q 0,0.829008 -0.62623,1.443309 -0.62026,0.608337 -1.47313,0.608337 h -16.1746 q -0.85287,0 -1.4791,-0.608337 -0.62026,-0.614301 -0.62026,-1.443309 V 12.077598 q 0,-0.852864 0.63219,-1.473129 0.63816,-0.6262291 1.46717,-0.6262291 z m -0.44134,2.9045101 q -0.48309,-0.656049 -1.27035,-0.656049 H 137.5045 q -0.81708,0 -1.55662,0.751475 -0.73955,0.751475 -0.73955,1.544698 v 12.017635 q 0,0.721655 0.51291,1.198782 0.48309,0.363809 1.04968,0.363809 h 12.75122 q 0.63219,0 1.09739,-0.465199 0.4652,-0.465199 0.4652,-1.097392 V 13.789291 q 0,-0.542732 -0.29224,-0.906541 z m -15.78097,1.640124 v -0.733583 q 0,-0.900577 0.40555,-1.329991 0.41153,-0.429414 1.30614,-0.429414 h 0.78129 12.01764 q 0.89461,0 1.41945,0.662013 l 1.2465,-1.222637 q 0.19085,-0.202779 0.19085,-0.417486 0,-0.339953 -0.34592,-0.584481 -0.33995,-0.244528 -0.79919,-0.244528 h -16.1746 q -0.50099,0 -0.93636,0.26242 -0.42942,0.26242 -0.67395,0.697798 -0.24452,0.429415 -0.24452,0.894613 v 16.174604 q 0,1.025823 0.68587,1.025823 0.32802,0 0.56062,-0.220671 l 1.12125,-1.151069 q -0.56062,-0.411522 -0.56062,-1.365776 z m 5.05754,10.013702 v -9.059448 h 4.19872 q 0.95425,0 1.65205,0.68587 0.6978,0.68587 0.6978,1.729585 0,0.620265 -0.22067,1.246494 -0.22067,0.626229 -0.72762,1.061608 -0.50098,0.429414 -1.30017,0.429414 h -3.155 v 3.906477 z m 1.14511,-7.890487 v 3.0059 h 3.05361 q 0.10139,0 0.38766,-0.208743 0.29224,-0.214707 0.52484,-0.602373 0.23857,-0.387666 0.23857,-0.94829 -0.0716,-0.58448 -0.42345,-0.912505 -0.35188,-0.333989 -0.91847,-0.333989 z m 15.17263,-2.123215 v -0.733583 q 0,-0.900577 0.40556,-1.329991 0.41152,-0.429414 1.30613,-0.429414 h 0.7813 12.01763 q 0.89461,0 1.41945,0.662013 l 1.2465,-1.222637 q 0.19085,-0.202779 0.19085,-0.417486 0,-0.339953 -0.34592,-0.584481 -0.33995,-0.244528 -0.79919,-0.244528 h -16.1746 q -0.50098,0 -0.93636,0.26242 -0.42942,0.26242 -0.67394,0.697798 -0.24453,0.429415 -0.24453,0.894613 v 16.174604 q 0,1.025823 0.68587,1.025823 0.32802,0 0.56062,-0.220671 l 1.12125,-1.151069 q -0.56062,-0.411522 -0.56062,-1.365776 z m 15.78097,-1.640124 q -0.48309,-0.656049 -1.27035,-0.656049 h -12.01763 q -0.81708,0 -1.55663,0.751475 -0.73955,0.751475 -0.73955,1.544698 v 12.017635 q 0,0.721655 0.51291,1.198782 0.48309,0.363809 1.04968,0.363809 h 12.75122 q 0.63219,0 1.09739,-0.465199 0.4652,-0.465199 0.4652,-1.097392 V 13.789291 q 0,-0.542732 -0.29224,-0.906541 z m 0.44134,-2.9045101 q 0.73359,0 1.41349,0.4711631 0.68587,0.465199 0.68587,1.628195 v 16.222317 q 0,0.829008 -0.62623,1.443309 -0.62026,0.608337 -1.47313,0.608337 h -16.1746 q -0.85286,0 -1.47909,-0.608337 -0.62027,-0.614301 -0.62027,-1.443309 V 12.077598 q 0,-0.852864 0.63219,-1.473129 0.63816,-0.6262291 1.46717,-0.6262291 z m -8.62407,14.5583361 v -9.059448 h 1.12125 v 9.059448 z m 13.77705,-10.013702 v -0.733583 q 0,-0.900577 0.40556,-1.329991 0.41152,-0.429414 1.30613,-0.429414 h 0.7813 12.01763 q 0.89461,0 1.41945,0.662013 l 1.2465,-1.222637 q 0.19085,-0.202779 0.19085,-0.417486 0,-0.339953 -0.34592,-0.584481 -0.33995,-0.244528 -0.79919,-0.244528 h -16.1746 q -0.50098,0 -0.93636,0.26242 -0.42942,0.26242 -0.67394,0.697798 -0.24453,0.429415 -0.24453,0.894613 v 16.174604 q 0,1.025823 0.68587,1.025823 0.32802,0 0.56062,-0.220671 l 1.12125,-1.151069 q -0.56062,-0.411522 -0.56062,-1.365776 z m 15.78097,-1.640124 q -0.48309,-0.656049 -1.27035,-0.656049 h -12.01763 q -0.81708,0 -1.55663,0.751475 -0.73955,0.751475 -0.73955,1.544698 v 12.017635 q 0,0.721655 0.51291,1.198782 0.48309,0.363809 1.04968,0.363809 h 12.75122 q 0.63219,0 1.09739,-0.465199 0.4652,-0.465199 0.4652,-1.097392 V 13.789291 q 0,-0.542732 -0.29224,-0.906541 z m 0.44134,-2.9045101 q 0.73359,0 1.41349,0.4711631 0.68587,0.465199 0.68587,1.628195 v 16.222317 q 0,0.829008 -0.62623,1.443309 -0.62026,0.608337 -1.47313,0.608337 h -16.1746 q -0.85286,0 -1.47909,-0.608337 -0.62027,-0.614301 -0.62027,-1.443309 V 12.077598 q 0,-0.852864 0.63219,-1.473129 0.63816,-0.6262291 1.46717,-0.6262291 z M 182.91506,24.536576 v -9.059448 h 6.25633 v 0.996002 h -5.10526 v 2.910475 h 4.90844 v 1.049679 h -4.90844 v 3.053613 h 5.30207 v 1.049679 z M 215.35969,9.9782399 q 0.73359,0 1.41349,0.4711631 0.68587,0.465199 0.68587,1.628195 v 16.222317 q 0,0.829008 -0.62623,1.443309 -0.62026,0.608337 -1.47313,0.608337 h -16.1746 q -0.85286,0 -1.47909,-0.608337 -0.62027,-0.614301 -0.62027,-1.443309 V 12.077598 q 0,-0.852864 0.63219,-1.473129 0.63816,-0.6262291 1.46717,-0.6262291 z m -0.44134,2.9045101 q -0.48309,-0.656049 -1.27035,-0.656049 h -12.01763 q -0.81708,0 -1.55663,0.751475 -0.73955,0.751475 -0.73955,1.544698 v 12.017635 q 0,0.721655 0.51291,1.198782 0.48309,0.363809 1.04968,0.363809 H 213.648 q 0.63219,0 1.09739,-0.465199 0.4652,-0.465199 0.4652,-1.097392 V 13.789291 q 0,-0.542732 -0.29224,-0.906541 z m -15.78097,1.640124 v -0.733583 q 0,-0.900577 0.40556,-1.329991 0.41152,-0.429414 1.30613,-0.429414 h 0.7813 12.01763 q 0.89461,0 1.41945,0.662013 l 1.2465,-1.222637 q 0.19085,-0.202779 0.19085,-0.417486 0,-0.339953 -0.34592,-0.584481 -0.33995,-0.244528 -0.79919,-0.244528 h -16.1746 q -0.50098,0 -0.93636,0.26242 -0.42942,0.26242 -0.67394,0.697798 -0.24453,0.429415 -0.24453,0.894613 v 16.174604 q 0,1.025823 0.68587,1.025823 0.32802,0 0.56062,-0.220671 l 1.12125,-1.151069 q -0.56062,-0.411522 -0.56062,-1.365776 z m 5.5466,10.013702 v -9.059448 h 1.27035 v 8.009769 h 4.34782 v 1.049679 z m 37.20398,-10.013702 v -0.733583 q 0,-0.900577 0.40556,-1.329991 0.41152,-0.429414 1.30613,-0.429414 h 0.7813 12.01763 q 0.89461,0 1.41945,0.662013 l 1.2465,-1.222637 q 0.19085,-0.202779 0.19085,-0.417486 0,-0.339953 -0.34592,-0.584481 -0.33995,-0.244528 -0.79919,-0.244528 h -16.1746 q -0.50098,0 -0.93636,0.26242 -0.42942,0.26242 -0.67394,0.697798 -0.24453,0.429415 -0.24453,0.894613 v 16.174604 q 0,1.025823 0.68587,1.025823 0.32802,0 0.56062,-0.220671 l 1.12125,-1.151069 q -0.56062,-0.411522 -0.56062,-1.365776 z m 15.78097,-1.640124 q -0.48309,-0.656049 -1.27035,-0.656049 h -12.01763 q -0.81708,0 -1.55663,0.751475 -0.73955,0.751475 -0.73955,1.544698 v 12.017635 q 0,0.721655 0.51291,1.198782 0.48309,0.363809 1.04968,0.363809 h 12.75122 q 0.63219,0 1.09739,-0.465199 0.4652,-0.465199 0.4652,-1.097392 V 13.789291 q 0,-0.542732 -0.29224,-0.906541 z m 0.44134,-2.9045101 q 0.73359,0 1.41349,0.4711631 0.68587,0.465199 0.68587,1.628195 v 16.222317 q 0,0.829008 -0.62623,1.443309 -0.62026,0.608337 -1.47313,0.608337 h -16.1746 q -0.85286,0 -1.47909,-0.608337 -0.62027,-0.614301 -0.62027,-1.443309 V 12.077598 q 0,-0.852864 0.63219,-1.473129 0.63816,-0.6262291 1.46717,-0.6262291 z M 245.6513,19.651989 q 0,-1.025823 0.52484,-2.009897 0.5308,-0.984075 1.53873,-1.622232 1.00793,-0.644122 2.33196,-0.644122 0.78726,0 1.5447,0.256456 0.75744,0.256456 1.38366,0.805152 0.6322,0.548696 1.03179,1.449273 0.3996,0.900577 0.43538,2.153035 0,0.978111 -0.2982,1.836939 -0.29821,0.852865 -0.89462,1.514878 -0.59044,0.662014 -1.47909,1.037751 -0.88269,0.375738 -2.01586,0.375738 -1.32999,0 -2.25443,-0.644122 -0.91847,-0.650085 -1.38367,-1.813082 -0.46519,-1.168961 -0.46519,-2.695767 z m 1.19878,0.58448 q 0.10139,1.276315 0.73358,2.337922 0.63816,1.061608 2.17093,1.18089 1.53277,0 2.46317,-1.037752 0.93039,-1.037751 0.93039,-3.137109 -0.0477,-0.846901 -0.43538,-1.556627 -0.38766,-0.71569 -1.07353,-1.133176 -0.68587,-0.417487 -1.59241,-0.417487 -0.78726,0 -1.52681,0.39363 -0.73358,0.39363 -1.20474,1.246494 -0.4652,0.852865 -0.4652,2.123215 z M 279.48556,9.9782399 q 0.73359,0 1.41349,0.4711631 0.68587,0.465199 0.68587,1.628195 v 16.222317 q 0,0.829008 -0.62623,1.443309 -0.62026,0.608337 -1.47313,0.608337 h -16.1746 q -0.85286,0 -1.47909,-0.608337 -0.62027,-0.614301 -0.62027,-1.443309 V 12.077598 q 0,-0.852864 0.63219,-1.473129 0.63816,-0.6262291 1.46717,-0.6262291 z m -0.44134,2.9045101 q -0.48309,-0.656049 -1.27035,-0.656049 h -12.01763 q -0.81708,0 -1.55663,0.751475 -0.73955,0.751475 -0.73955,1.544698 v 12.017635 q 0,0.721655 0.51291,1.198782 0.48309,0.363809 1.04968,0.363809 h 12.75122 q 0.63219,0 1.09739,-0.465199 0.4652,-0.465199 0.4652,-1.097392 V 13.789291 q 0,-0.542732 -0.29224,-0.906541 z m -15.78097,1.640124 v -0.733583 q 0,-0.900577 0.40556,-1.329991 0.41152,-0.429414 1.30613,-0.429414 h 0.7813 12.01763 q 0.89461,0 1.41945,0.662013 l 1.2465,-1.222637 q 0.19085,-0.202779 0.19085,-0.417486 0,-0.339953 -0.34592,-0.584481 -0.33995,-0.244528 -0.79919,-0.244528 h -16.1746 q -0.50098,0 -0.93636,0.26242 -0.42942,0.26242 -0.67394,0.697798 -0.24453,0.429415 -0.24453,0.894613 v 16.174604 q 0,1.025823 0.68587,1.025823 0.32802,0 0.56062,-0.220671 l 1.12125,-1.151069 q -0.56062,-0.411522 -0.56062,-1.365776 z m 4.6162,10.013702 v -9.059448 h 1.44331 l 4.49692,7.276186 v -7.276186 h 1.16896 v 9.059448 h -1.36577 l -4.59235,-7.204617 v 7.204617 z M 300.86084,9.9782399 q 0.73358,0 1.41349,0.4711631 0.68587,0.465199 0.68587,1.628195 v 16.222317 q 0,0.829008 -0.62623,1.443309 -0.62027,0.608337 -1.47313,0.608337 h -16.17461 q -0.85286,0 -1.47909,-0.608337 -0.62026,-0.614301 -0.62026,-1.443309 V 12.077598 q 0,-0.852864 0.63219,-1.473129 0.63816,-0.6262291 1.46716,-0.6262291 z M 300.4195,12.88275 q -0.4831,-0.656049 -1.27035,-0.656049 h -12.01764 q -0.81708,0 -1.55663,0.751475 -0.73954,0.751475 -0.73954,1.544698 v 12.017635 q 0,0.721655 0.51291,1.198782 0.48309,0.363809 1.04968,0.363809 h 12.75122 q 0.63219,0 1.09739,-0.465199 0.4652,-0.465199 0.4652,-1.097392 V 13.789291 q 0,-0.542732 -0.29224,-0.906541 z m -15.78098,1.640124 v -0.733583 q 0,-0.900577 0.40556,-1.329991 0.41152,-0.429414 1.30613,-0.429414 h 0.7813 12.01764 q 0.89461,0 1.41945,0.662013 l 1.24649,-1.222637 q 0.19085,-0.202779 0.19085,-0.417486 0,-0.339953 -0.34591,-0.584481 -0.33996,-0.244528 -0.79919,-0.244528 h -16.17461 q -0.50098,0 -0.93636,0.26242 -0.42941,0.26242 -0.67394,0.697798 -0.24453,0.429415 -0.24453,0.894613 v 16.174604 q 0,1.025823 0.68587,1.025823 0.32803,0 0.56063,-0.220671 l 1.12125,-1.151069 q -0.56063,-0.411522 -0.56063,-1.365776 z m 5.5466,10.013702 v -9.059448 h 1.27035 v 8.009769 h 4.34782 v 1.049679 z m 15.82871,-10.013702 v -0.733583 q 0,-0.900577 0.40555,-1.329991 0.41153,-0.429414 1.30614,-0.429414 h 0.7813 12.01763 q 0.89461,0 1.41945,0.662013 l 1.2465,-1.222637 q 0.19085,-0.202779 0.19085,-0.417486 0,-0.339953 -0.34592,-0.584481 -0.33995,-0.244528 -0.79919,-0.244528 h -16.1746 q -0.50098,0 -0.93636,0.26242 -0.42942,0.26242 -0.67394,0.697798 -0.24453,0.429415 -0.24453,0.894613 v 16.174604 q 0,1.025823 0.68587,1.025823 0.32802,0 0.56062,-0.220671 l 1.12125,-1.151069 q -0.56062,-0.411522 -0.56062,-1.365776 z M 321.7948,12.88275 q -0.48309,-0.656049 -1.27035,-0.656049 h -12.01763 q -0.81708,0 -1.55663,0.751475 -0.73955,0.751475 -0.73955,1.544698 v 12.017635 q 0,0.721655 0.51291,1.198782 0.48309,0.363809 1.04968,0.363809 h 12.75122 q 0.63219,0 1.09739,-0.465199 0.4652,-0.465199 0.4652,-1.097392 V 13.789291 q 0,-0.542732 -0.29224,-0.906541 z m 0.44134,-2.9045101 q 0.73359,0 1.41349,0.4711631 0.68587,0.465199 0.68587,1.628195 v 16.222317 q 0,0.829008 -0.62623,1.443309 -0.62026,0.608337 -1.47313,0.608337 h -16.1746 q -0.85286,0 -1.47909,-0.608337 -0.62027,-0.614301 -0.62027,-1.443309 V 12.077598 q 0,-0.852864 0.63219,-1.473129 0.63816,-0.6262291 1.46717,-0.6262291 z m -8.62407,14.5583361 v -9.059448 h 1.12125 v 9.059448 z M 343.61142,9.9782399 q 0.73358,0 1.41349,0.4711631 0.68587,0.465199 0.68587,1.628195 v 16.222317 q 0,0.829008 -0.62623,1.443309 -0.62027,0.608337 -1.47313,0.608337 h -16.17461 q -0.85286,0 -1.47909,-0.608337 -0.62026,-0.614301 -0.62026,-1.443309 V 12.077598 q 0,-0.852864 0.63219,-1.473129 0.63816,-0.6262291 1.46716,-0.6262291 z m -0.44134,2.9045101 q -0.4831,-0.656049 -1.27036,-0.656049 h -12.01763 q -0.81708,0 -1.55663,0.751475 -0.73954,0.751475 -0.73954,1.544698 v 12.017635 q 0,0.721655 0.51291,1.198782 0.48309,0.363809 1.04968,0.363809 h 12.75121 q 0.6322,0 1.0974,-0.465199 0.4652,-0.465199 0.4652,-1.097392 V 13.789291 q 0,-0.542732 -0.29224,-0.906541 z m -15.78098,1.640124 v -0.733583 q 0,-0.900577 0.40556,-1.329991 0.41152,-0.429414 1.30613,-0.429414 h 0.7813 12.01763 q 0.89462,0 1.41946,0.662013 l 1.24649,-1.222637 q 0.19085,-0.202779 0.19085,-0.417486 0,-0.339953 -0.34591,-0.584481 -0.33996,-0.244528 -0.79919,-0.244528 h -16.17461 q -0.50098,0 -0.93636,0.26242 -0.42941,0.26242 -0.67394,0.697798 -0.24453,0.429415 -0.24453,0.894613 v 16.174604 q 0,1.025823 0.68587,1.025823 0.32803,0 0.56063,-0.220671 l 1.12125,-1.151069 q -0.56063,-0.411522 -0.56063,-1.365776 z m 4.6162,10.013702 v -9.059448 h 1.44331 l 4.49693,7.276186 v -7.276186 h 1.16896 v 9.059448 h -1.36578 l -4.59235,-7.204617 v 7.204617 z m 16.75911,-10.013702 v -0.733583 q 0,-0.900577 0.40555,-1.329991 0.41153,-0.429414 1.30614,-0.429414 h 0.7813 12.01763 q 0.89461,0 1.41945,0.662013 l 1.2465,-1.222637 q 0.19085,-0.202779 0.19085,-0.417486 0,-0.339953 -0.34592,-0.584481 -0.33995,-0.244528 -0.79919,-0.244528 h -16.1746 q -0.50098,0 -0.93636,0.26242 -0.42942,0.26242 -0.67394,0.697798 -0.24453,0.429415 -0.24453,0.894613 v 16.174604 q 0,1.025823 0.68587,1.025823 0.32802,0 0.56062,-0.220671 l 1.12125,-1.151069 q -0.56062,-0.411522 -0.56062,-1.365776 z m 15.78097,-1.640124 q -0.48309,-0.656049 -1.27035,-0.656049 H 351.2574 q -0.81708,0 -1.55663,0.751475 -0.73955,0.751475 -0.73955,1.544698 v 12.017635 q 0,0.721655 0.51291,1.198782 0.48309,0.363809 1.04968,0.363809 h 12.75122 q 0.63219,0 1.09739,-0.465199 0.4652,-0.465199 0.4652,-1.097392 V 13.789291 q 0,-0.542732 -0.29224,-0.906541 z m 0.44134,-2.9045101 q 0.73359,0 1.41349,0.4711631 0.68587,0.465199 0.68587,1.628195 v 16.222317 q 0,0.829008 -0.62623,1.443309 -0.62026,0.608337 -1.47313,0.608337 h -16.1746 q -0.85286,0 -1.47909,-0.608337 -0.62027,-0.614301 -0.62027,-1.443309 V 12.077598 q 0,-0.852864 0.63219,-1.473129 0.63816,-0.6262291 1.46717,-0.6262291 z M 353.91738,24.536576 v -9.059448 h 6.25632 v 0.996002 h -5.10525 v 2.910475 h 4.90844 v 1.049679 h -4.90844 v 3.053613 h 5.30207 v 1.049679 z"
       id="text1"
       aria-label="Lernspiel Online" />
  </g>
</svg>
