<svg viewBox="0 0 109.1 27.3" xmlns:xlink="http://www.w3.org/1999/xlink" xmlns="http://www.w3.org/2000/svg"><defs><linearGradient id="a"><stop offset="0" stop-color="#da65d2"/><stop offset=".5" stop-color="#ffc550"/><stop offset="1" stop-color="#1fd1eb"/></linearGradient><linearGradient xlink:href="#a" id="b" x1="7.3" y1="16.2" x2="284.8" y2="16.2" gradientUnits="userSpaceOnUse" gradientTransform="translate(12.8 10.3)"/></defs><path style="line-height:25.2631px;-inkscape-font-specification:&quot;Freehand575 BT&quot;" d="m22 27.1 2.6-.4 2.2-.2q.7 0 1 .2.3.1.3.5t-.9.5h-.7l-3.5.7-2 .4q-.5 0-.7-.2t-.2-.9 1-4.3 2.6-8.1V15q.6-1.4 1.3-1.4t1.1.2.5.4l-.4.8-2.8 7zm8.8-2q.4 0 .8-.9t.4-1.7l-.1-.2-.2-.2q-.4 0-.9.9t-.5 1.4q0 .3.2.5 0 .2.3.2m-.9.4v.7l-.1.6q0 .7.2 1 .1.4.5.4.7 0 1.6-.8t1.6-2.1l.1-.4.4-.5.3.2v.3l-.2.8-.8 1.2q-.8 1.1-1.6 1.6t-1.7.5-1.3-.5-.5-1.6.5-2.7 1.4-2.8l.6-.6.6-.2h.3l.3.3.5.1q.7.2.7.9 0 1.5-.9 2.7T30.7 26l-.4-.1zm4.9-3.3-.4-.3v-.2q0-.4.4-.8t1-.4q.2 0 .3.2.2.1.2.3v.7l.7.2.2-.2.3-.3h.3l.6.1q.3.2.3.5l-.1.3-.4.4q-.8 1.2-1.2 2.4t-.3 2v.5q.1.2.3.2.4 0 .8-.6t1-1.7l.2-.3q.2-.5.4-.5l.3.1.1.3-.2.6-.5 1-1.3 1.7q-.5.4-1 .4-.8 0-1.1-.4t-.4-1.2l.2-1.7.8-2.2-.7-.3q-.6 1.8-1 2.5t-.8.7h-.2l-.1-.3.1-.4q.8-1.6 1.2-3.3m7.6 2.2-1.5 2.5q-1 1.9-1.4 1.9-.5 0-.8-.3-.2-.3-.2-.8l.3-2.1q.4-1.6 1-3 .2-.5.4-.6.2-.2.5-.2t.5.2.3.3l-.2.4q-1 2-1.4 4.4l2.5-4.4q.9-1.3 1.3-1.3t.7.3q.4.2.4.6 0 .2-.3.4l-.2.2-.2.5-.4 1-.4 1.7-.2 1.1.1.4q0 .2.2.2.4 0 1.4-1.8l.3-.6.1-.1q.2-.3.4-.3l.3.2.2.2q0 .3-.6 1.3t-1.2 1.7l-.5.4h-.5q-.6 0-1-.4-.3-.5-.3-1.4v-1zm2.6 3.1.8.4 1 .3-.3-1.3-.3-1.8-.5 1.2zm-.5.9-.3.1-.5.3-.2-.1-.1-.5.2-.4q2.1-3 3-6.8v-.2q0-.4.2-.5.1-.2.3-.2.3 0 .8.3t.4.4v.1q-1 1.2-1 3 0 1 .3 2.3.4 1.4.4 2t-.4 1q-.3.5-.7.5t-1.2-.6-1.2-.7m5.7-1.3q0 .4.2.6l.6.2q.4 0 .8-.4t.8-1.3l.4-1.5.2-1.3V23l-.4-.2q-.4 0-1.2 1.3T50.2 27m1-4 1-1.4q.4-.4.8-.4.6 0 1 .7t.4 1.6q0 2-1 3.6T51.2 29q-.5 0-.8-.2l-.6-.6-.8 3.7-.3 1.9.1.2.1.2-.1.3-.4.2q-.4 0-.7-.2t-.2-.6q0-.6.6-3.3t1.4-6l.3-1.2q1-3.6 1.5-3.6.3 0 .5.2.2.1.2.3l-.4 1.1zm6.2-1.8-.6-.2q-.2-.2-.2-.5 0-.5.5-.8t1-.3q.3 0 .4.2.2.1.2.4 0 .5-.4.8t-.9.4m-.9 7.5q-.6 0-1-.6t-.4-1.4q0-1.1.4-2.5.3-1.4.7-2l.4-.3.7-.1.4.1.1.3-.2.5-.1.5-.2.4q-1 2.8-1 3.5v.4l.4.1q.3 0 .9-.6l1.2-1.5.2-.4.3-.4.3.2.1.3-.4.8-.3.5q-.7 1.2-1.3 1.7t-1.2.5m4.4-3.7q.4 0 .8-.9.3-.8.3-1.7v-.2q-.1-.2-.3-.2-.3 0-.8.9t-.5 1.4l.1.5zm-.9.4-.1.7v.6l.1 1q.2.4.6.4.6 0 1.6-.8t1.6-2.1l.1-.4.4-.5.2.2q.2.1.2.3l-.3.8-.8 1.2q-.9 1.1-1.6 1.6t-1.7.5-1.4-.5q-.4-.6-.4-1.6 0-1.2.5-2.7t1.4-2.8q.2-.4.5-.6l.6-.2h.3l.4.3.4.1q.7.2.7.9 0 1.5-.8 2.7T60.7 26l-.3-.1zm6.1-1.7q1.6-3 2.5-5.4 1-2.5 1-3.2V15l-.2-.1h-.2l-1.8 4.8zm-1.6 2-.4-.2-.1-.5.4-.2q.4 0 .7-.3l1.4-5.2 1.7-4.8v-.3q0-.2.4-.5t.8-.3q.5 0 1 .5t.5 1q0 1-1.3 4T66 25.1l-.1.7v.6l.1 1.1q.2.4.5.4t.7-.4l1-1.3.5-1 .3-.4.4.2.2.2v.2l-1.1 2-.7.8-.7.5-.8.2q-.6 0-1.2-.6t-.5-1.5zm12.9-1q0 1.4.7 2.2t1.9.8 2.3-.9 2.1-2.2 1.5-3.5.6-3.5-.5-2q-.5-.8-1.5-.8-.8 0-1.7.6-1 .5-1.9 1.6-1.7 2-2.6 4t-1 3.7M85 14q1.4.2 2.2 1.3.7 1 .7 2.7 0 1.4-.4 3-.4 1.8-1.2 3.3-1 2.1-2.7 3.5-1.6 1.3-3.2 1.3-1 0-2-.4t-1.6-1-.9-1.3q-.3-1-.3-2 0-1.6.6-3.3.7-1.8 2-3.6t2.8-3 2.5-1.2l.7.1zm6.2 10.4L90 26.9q-1 1.9-1.5 1.9t-.7-.3-.3-.8.4-2.1 1-3l.3-.6q.2-.2.6-.2l.5.2q.2.1.2.3l-.2.4q-1 2-1.4 4.4l2.5-4.4q.9-1.3 1.4-1.3.3 0 .7.3t.3.6l-.2.4-.3.2-.2.5-.4 1-.4 1.7-.1 1.1v.4l.2.2q.4 0 1.5-1.8l.3-.6v-.1q.2-.3.4-.3l.3.2.2.2q0 .3-.5 1.3t-1.3 1.7l-.5.4h-.5q-.6 0-1-.4-.3-.5-.3-1.4l.1-1zm5.2-.6q1.5-3 2.5-5.4t1-3.2V15l-.2-.1h-.2l-1.8 4.8zm-1.6 2-.2.1q-.3 0-.4-.2t-.2-.5l.4-.2q.4 0 .7-.3l1.5-5.2 1.7-4.8v-.3q0-.2.3-.5.5-.3.8-.3.5 0 1 .5t.6 1q0 1-1.4 4t-3.4 6.2l-.2.7v.6q0 .8.2 1.1.1.4.4.4t.8-.4l1-1.3.4-1 .4-.4.3.2.2.2v.2l-1 2-.8.8q-.3.4-.7.5-.3.2-.7.2-.7 0-1.3-.6-.5-.7-.5-1.5zm6.3-4.5q-.4 0-.6-.2-.3-.2-.3-.5 0-.5.5-.8t1-.3q.3 0 .5.2l.1.4q0 .5-.4.8t-.8.4m-1 7.5q-.6 0-1-.6-.3-.5-.3-1.4 0-1.1.3-2.5l.7-2 .5-.3.7-.1.3.1.1.3-.1.5-.2.5-.2.4q-1 2.8-1 3.5l.1.4.3.1q.4 0 1-.6l1-1.5q.2-.1.3-.4l.3-.4q.2 0 .3.2l.1.3-.4.8-.3.5q-.7 1.2-1.3 1.7-.5.5-1.2.5m6-4.4-1.5 2.5q-1 1.9-1.5 1.9t-.7-.3-.3-.8.4-2.1 1-3l.3-.6q.2-.2.6-.2l.5.2q.2.1.2.3l-.2.4q-1 2-1.4 4.4l2.5-4.4q.9-1.3 1.4-1.3.3 0 .7.3t.3.6l-.2.4-.3.2-.2.5-.4 1-.4 1.7-.1 1.1v.4l.2.2q.4 0 1.5-1.8l.3-.6v-.1q.2-.3.4-.3l.3.2.2.2q0 .3-.5 1.3t-1.3 1.7l-.5.4h-.5q-.6 0-1-.4-.3-.5-.3-1.4l.1-1zm4.7.7q.4 0 .8-.9t.4-1.7l-.1-.2-.2-.2q-.4 0-.9.9t-.5 1.4l.1.5zm-.9.4-.1.7v.6l.1 1q.2.4.6.4.7 0 1.6-.8t1.6-2.1l.1-.4.4-.5.3.2v.3l-.2.8-.8 1.2q-.9 1.1-1.6 1.6t-1.7.5-1.3-.5q-.5-.6-.5-1.6 0-1.2.5-2.7t1.4-2.8q.2-.4.5-.6l.6-.2h.4l.3.3.4.1q.8.2.8.9 0 1.5-.9 2.7t-1.7 1.3l-.4-.1z" aria-label="Lernspiel Online" font-size="24.4" font-family="Freehand575 BT" letter-spacing="0" word-spacing="0" fill="url(#b)" transform="translate(-12.8 -10.3)"/></svg>