<?xml version="1.0" encoding="UTF-8" standalone="no"?>
<svg
   viewBox="0 0 94.400003 21.4"
   version="1.1"
   id="svg3"
   sodipodi:docname="default_logo.svg"
   width="94.400002"
   height="21.4"
   inkscape:version="1.3.2 (091e20ef0f, 2023-11-25)"
   xmlns:inkscape="http://www.inkscape.org/namespaces/inkscape"
   xmlns:sodipodi="http://sodipodi.sourceforge.net/DTD/sodipodi-0.dtd"
   xmlns:xlink="http://www.w3.org/1999/xlink"
   xmlns="http://www.w3.org/2000/svg"
   xmlns:svg="http://www.w3.org/2000/svg">
  <sodipodi:namedview
     id="namedview3"
     pagecolor="#ffffff"
     bordercolor="#cccccc"
     borderopacity="1"
     inkscape:showpageshadow="0"
     inkscape:pageopacity="1"
     inkscape:pagecheckerboard="0"
     inkscape:deskcolor="#d1d1d1"
     inkscape:zoom="10.421632"
     inkscape:cx="47.257475"
     inkscape:cy="10.650923"
     inkscape:window-width="1920"
     inkscape:window-height="1031"
     inkscape:window-x="0"
     inkscape:window-y="49"
     inkscape:window-maximized="0"
     inkscape:current-layer="svg3" />
  <defs
     id="defs3">
    <linearGradient
       id="a">
      <stop
         offset="0"
         stop-color="#da65d2"
         id="stop1" />
      <stop
         offset=".5"
         stop-color="#ffc550"
         id="stop2" />
      <stop
         offset="1"
         stop-color="#1fd1eb"
         id="stop3" />
    </linearGradient>
    <linearGradient
       xlink:href="#a"
       id="b"
       x1="7.3000002"
       y1="16.200001"
       x2="284.79999"
       y2="16.200001"
       gradientUnits="userSpaceOnUse" />
  </defs>
  <path
     style="line-height:25.2631px;-inkscape-font-specification:'Freehand575 BT';fill:url(#b)"
     d="m 1.9,13.8 2.6,-0.4 2.2,-0.2 q 0.7,0 1,0.2 0.3,0.1 0.3,0.5 0,0.4 -0.9,0.5 H 6.4 l -3.5,0.7 -2,0.4 Q 0.4,15.5 0.2,15.3 0,15.1 0,14.4 0,13.7 1,10.1 2,6.5 3.6,2 V 1.7 Q 4.2,0.3 4.9,0.3 5.6,0.3 6,0.5 6.4,0.7 6.5,0.9 l -0.4,0.8 -2.8,7 z m 8.8,-2 q 0.4,0 0.8,-0.9 0.4,-0.9 0.4,-1.7 L 11.8,9 11.6,8.8 q -0.4,0 -0.9,0.9 -0.5,0.9 -0.5,1.4 0,0.3 0.2,0.5 0,0.2 0.3,0.2 m -0.9,0.4 v 0.7 l -0.1,0.6 q 0,0.7 0.2,1 0.1,0.4 0.5,0.4 0.7,0 1.6,-0.8 0.9,-0.8 1.6,-2.1 l 0.1,-0.4 0.4,-0.5 0.3,0.2 v 0.3 l -0.2,0.8 -0.8,1.2 q -0.8,1.1 -1.6,1.6 -0.8,0.5 -1.7,0.5 -0.9,0 -1.3,-0.5 Q 8.4,14.7 8.3,13.6 8.2,12.5 8.8,10.9 9.4,9.3 10.2,8.1 l 0.6,-0.6 0.6,-0.2 h 0.3 l 0.3,0.3 0.5,0.1 q 0.7,0.2 0.7,0.9 0,1.5 -0.9,2.7 -0.9,1.2 -1.7,1.4 L 10.2,12.6 Z M 14.7,8.9 14.3,8.6 V 8.4 q 0,-0.4 0.4,-0.8 0.4,-0.4 1,-0.4 0.2,0 0.3,0.2 0.2,0.1 0.2,0.3 v 0.7 l 0.7,0.2 0.2,-0.2 0.3,-0.3 h 0.3 l 0.6,0.1 q 0.3,0.2 0.3,0.5 L 18.5,9 18.1,9.4 q -0.8,1.2 -1.2,2.4 -0.4,1.2 -0.3,2 v 0.5 q 0.1,0.2 0.3,0.2 0.4,0 0.8,-0.6 0.4,-0.6 1,-1.7 l 0.2,-0.3 q 0.2,-0.5 0.4,-0.5 l 0.3,0.1 0.1,0.3 -0.2,0.6 -0.5,1 -1.3,1.7 q -0.5,0.4 -1,0.4 -0.8,0 -1.1,-0.4 -0.3,-0.4 -0.4,-1.2 L 15.4,12.2 16.2,10 15.5,9.7 q -0.6,1.8 -1,2.5 -0.4,0.7 -0.8,0.7 h -0.2 l -0.1,-0.3 0.1,-0.4 q 0.8,-1.6 1.2,-3.3 m 7.6,2.2 -1.5,2.5 q -1,1.9 -1.4,1.9 -0.5,0 -0.8,-0.3 -0.2,-0.3 -0.2,-0.8 l 0.3,-2.1 q 0.4,-1.6 1,-3 0.2,-0.5 0.4,-0.6 0.2,-0.2 0.5,-0.2 0.3,0 0.5,0.2 0.2,0.2 0.3,0.3 l -0.2,0.4 q -1,2 -1.4,4.4 l 2.5,-4.4 q 0.9,-1.3 1.3,-1.3 0.4,0 0.7,0.3 0.4,0.2 0.4,0.6 0,0.2 -0.3,0.4 l -0.2,0.2 -0.2,0.5 -0.4,1 -0.4,1.7 -0.2,1.1 0.1,0.4 q 0,0.2 0.2,0.2 0.4,0 1.4,-1.8 L 25,12.1 25.1,12 q 0.2,-0.3 0.4,-0.3 l 0.3,0.2 0.2,0.2 q 0,0.3 -0.6,1.3 -0.6,1 -1.2,1.7 l -0.5,0.4 h -0.5 q -0.6,0 -1,-0.4 -0.3,-0.5 -0.3,-1.4 v -1 z m 2.6,3.1 0.8,0.4 1,0.3 -0.3,-1.3 -0.3,-1.8 -0.5,1.2 z m -0.5,0.9 -0.3,0.1 -0.5,0.3 -0.2,-0.1 -0.1,-0.5 0.2,-0.4 q 2.1,-3 3,-6.8 V 7.5 q 0,-0.4 0.2,-0.5 0.1,-0.2 0.3,-0.2 0.3,0 0.8,0.3 0.5,0.3 0.4,0.4 v 0.1 q -1,1.2 -1,3 0,1 0.3,2.3 0.4,1.4 0.4,2 0,0.6 -0.4,1 -0.3,0.5 -0.7,0.5 -0.4,0 -1.2,-0.6 -0.8,-0.6 -1.2,-0.7 m 5.7,-1.3 q 0,0.4 0.2,0.6 l 0.6,0.2 q 0.4,0 0.8,-0.4 0.4,-0.4 0.8,-1.3 l 0.4,-1.5 0.2,-1.3 V 9.7 L 32.7,9.5 q -0.4,0 -1.2,1.3 -0.8,1.3 -1.4,2.9 m 1,-4 1,-1.4 q 0.4,-0.4 0.8,-0.4 0.6,0 1,0.7 0.4,0.7 0.4,1.6 0,2 -1,3.6 -1,1.6 -2.2,1.9 -0.5,0 -0.8,-0.2 l -0.6,-0.6 -0.8,3.7 -0.3,1.9 0.1,0.2 0.1,0.2 -0.1,0.3 -0.4,0.2 q -0.4,0 -0.7,-0.2 -0.3,-0.2 -0.2,-0.6 0,-0.6 0.6,-3.3 0.6,-2.7 1.4,-6 l 0.3,-1.2 q 1,-3.6 1.5,-3.6 0.3,0 0.5,0.2 0.2,0.1 0.2,0.3 L 31.5,8.1 Z M 37.3,7.9 36.7,7.7 q -0.2,-0.2 -0.2,-0.5 0,-0.5 0.5,-0.8 0.5,-0.3 1,-0.3 0.3,0 0.4,0.2 0.2,0.1 0.2,0.4 0,0.5 -0.4,0.8 -0.4,0.3 -0.9,0.4 m -0.9,7.5 q -0.6,0 -1,-0.6 -0.4,-0.6 -0.4,-1.4 0,-1.1 0.4,-2.5 0.3,-1.4 0.7,-2 l 0.4,-0.3 0.7,-0.1 0.4,0.1 0.1,0.3 -0.2,0.5 -0.1,0.5 -0.2,0.4 q -1,2.8 -1,3.5 v 0.4 l 0.4,0.1 q 0.3,0 0.9,-0.6 l 1.2,-1.5 0.2,-0.4 0.3,-0.4 0.3,0.2 0.1,0.3 -0.4,0.8 -0.3,0.5 q -0.7,1.2 -1.3,1.7 -0.6,0.5 -1.2,0.5 m 4.4,-3.7 q 0.4,0 0.8,-0.9 0.3,-0.8 0.3,-1.7 V 8.9 q -0.1,-0.2 -0.3,-0.2 -0.3,0 -0.8,0.9 -0.5,0.9 -0.5,1.4 l 0.1,0.5 z m -0.9,0.4 -0.1,0.7 v 0.6 l 0.1,1 q 0.2,0.4 0.6,0.4 0.6,0 1.6,-0.8 1,-0.8 1.6,-2.1 l 0.1,-0.4 0.4,-0.5 0.2,0.2 q 0.2,0.1 0.2,0.3 l -0.3,0.8 -0.8,1.2 q -0.9,1.1 -1.6,1.6 -0.7,0.5 -1.7,0.5 -1,0 -1.4,-0.5 -0.4,-0.6 -0.4,-1.6 0,-1.2 0.5,-2.7 0.5,-1.5 1.4,-2.8 0.2,-0.4 0.5,-0.6 l 0.6,-0.2 h 0.3 l 0.4,0.3 0.4,0.1 q 0.7,0.2 0.7,0.9 0,1.5 -0.8,2.7 -0.8,1.2 -1.8,1.5 L 40.3,12.6 Z M 46,10.4 q 1.6,-3 2.5,-5.4 1,-2.5 1,-3.2 V 1.7 L 49.3,1.6 h -0.2 l -1.8,4.8 z m -1.6,2 -0.4,-0.2 -0.1,-0.5 0.4,-0.2 q 0.4,0 0.7,-0.3 L 46.4,6 48.1,1.2 V 0.9 q 0,-0.2 0.4,-0.5 0.4,-0.3 0.8,-0.3 0.5,0 1,0.5 0.5,0.5 0.5,1 0,1 -1.3,4 -1.3,3 -3.6,6.2 l -0.1,0.7 v 0.6 l 0.1,1.1 q 0.2,0.4 0.5,0.4 0.3,0 0.7,-0.4 l 1,-1.3 0.5,-1 0.3,-0.4 0.4,0.2 0.2,0.2 v 0.2 l -1.1,2 -0.7,0.8 -0.7,0.5 -0.8,0.2 Q 45.6,15.6 45,15 44.4,14.4 44.5,13.5 Z m 12.9,-1 q 0,1.4 0.7,2.2 0.7,0.8 1.9,0.8 1.2,0 2.3,-0.9 1.1,-0.9 2.1,-2.2 1,-1.3 1.5,-3.5 0.5,-2.2 0.6,-3.5 0.1,-1.3 -0.5,-2 -0.5,-0.8 -1.5,-0.8 -0.8,0 -1.7,0.6 -1,0.5 -1.9,1.6 -1.7,2 -2.6,4 -0.9,2 -1,3.7 M 64.9,0.7 q 1.4,0.2 2.2,1.3 0.7,1 0.7,2.7 0,1.4 -0.4,3 -0.4,1.8 -1.2,3.3 -1,2.1 -2.7,3.5 -1.6,1.3 -3.2,1.3 -1,0 -2,-0.4 -1,-0.4 -1.6,-1 -0.6,-0.6 -0.9,-1.3 -0.3,-1 -0.3,-2 0,-1.6 0.6,-3.3 0.7,-1.8 2,-3.6 1.3,-1.8 2.8,-3 Q 62.4,0 63.4,0 l 0.7,0.1 z m 6.2,10.4 -1.2,2.5 q -1,1.9 -1.5,1.9 -0.5,0 -0.7,-0.3 -0.2,-0.3 -0.3,-0.8 -0.1,-0.5 0.4,-2.1 0.5,-1.6 1,-3 l 0.3,-0.6 q 0.2,-0.2 0.6,-0.2 l 0.5,0.2 q 0.2,0.1 0.2,0.3 l -0.2,0.4 q -1,2 -1.4,4.4 l 2.5,-4.4 q 0.9,-1.3 1.4,-1.3 0.3,0 0.7,0.3 0.4,0.3 0.3,0.6 l -0.2,0.4 -0.3,0.2 -0.2,0.5 -0.4,1 -0.4,1.7 -0.1,1.1 v 0.4 l 0.2,0.2 q 0.4,0 1.5,-1.8 l 0.3,-0.6 V 12 q 0.2,-0.3 0.4,-0.3 l 0.3,0.2 0.2,0.2 q 0,0.3 -0.5,1.3 -0.5,1 -1.3,1.7 l -0.5,0.4 h -0.5 q -0.6,0 -1,-0.4 -0.3,-0.5 -0.3,-1.4 l 0.1,-1 z m 5.2,-0.6 q 1.5,-3 2.5,-5.4 1,-2.4 1,-3.2 V 1.7 L 79.6,1.6 h -0.2 l -1.8,4.8 z m -1.6,2 -0.2,0.1 q -0.3,0 -0.4,-0.2 -0.1,-0.2 -0.2,-0.5 l 0.4,-0.2 q 0.4,0 0.7,-0.3 L 76.5,6.2 78.2,1.4 V 1.1 q 0,-0.2 0.3,-0.5 0.5,-0.3 0.8,-0.3 0.5,0 1,0.5 0.5,0.5 0.6,1 0,1 -1.4,4 -1.4,3 -3.4,6.2 l -0.2,0.7 v 0.6 q 0,0.8 0.2,1.1 0.1,0.4 0.4,0.4 0.3,0 0.8,-0.4 l 1,-1.3 0.4,-1 0.4,-0.4 0.3,0.2 0.2,0.2 v 0.2 l -1,2 -0.8,0.8 q -0.3,0.4 -0.7,0.5 -0.3,0.2 -0.7,0.2 -0.7,0 -1.3,-0.6 -0.5,-0.7 -0.5,-1.5 z M 81,8 Q 80.6,8 80.4,7.8 80.1,7.6 80.1,7.3 q 0,-0.5 0.5,-0.8 0.5,-0.3 1,-0.3 0.3,0 0.5,0.2 l 0.1,0.4 q 0,0.5 -0.4,0.8 Q 81.4,7.9 81,8 m -1,7.5 q -0.6,0 -1,-0.6 -0.3,-0.5 -0.3,-1.4 0,-1.1 0.3,-2.5 L 79.7,9 80.2,8.7 80.9,8.6 81.2,8.7 81.3,9 81.2,9.5 81,10 80.8,10.4 q -1,2.8 -1,3.5 l 0.1,0.4 0.3,0.1 q 0.4,0 1,-0.6 l 1,-1.5 q 0.2,-0.1 0.3,-0.4 l 0.3,-0.4 q 0.2,0 0.3,0.2 l 0.1,0.3 -0.4,0.8 -0.3,0.5 q -0.7,1.2 -1.3,1.7 -0.5,0.5 -1.2,0.5 m 6,-4.4 -1.5,2.5 q -1,1.9 -1.5,1.9 -0.5,0 -0.7,-0.3 -0.2,-0.3 -0.3,-0.8 -0.1,-0.5 0.4,-2.1 0.5,-1.6 1,-3 l 0.3,-0.6 q 0.2,-0.2 0.6,-0.2 l 0.5,0.2 Q 85,8.8 85,9 l -0.2,0.4 q -1,2 -1.4,4.4 l 2.5,-4.4 q 0.9,-1.3 1.4,-1.3 0.3,0 0.7,0.3 0.4,0.3 0.3,0.6 l -0.2,0.4 -0.3,0.2 -0.2,0.5 -0.4,1 -0.4,1.7 -0.1,1.1 v 0.4 l 0.2,0.2 q 0.4,0 1.5,-1.8 l 0.3,-0.6 V 12 q 0.2,-0.3 0.4,-0.3 l 0.3,0.2 0.2,0.2 q 0,0.3 -0.5,1.3 -0.5,1 -1.3,1.7 l -0.5,0.4 h -0.5 q -0.6,0 -1,-0.4 -0.3,-0.5 -0.3,-1.4 l 0.1,-1 z m 4.7,0.7 q 0.4,0 0.8,-0.9 0.4,-0.9 0.4,-1.7 L 91.8,9 91.6,8.8 q -0.4,0 -0.9,0.9 -0.5,0.9 -0.5,1.4 l 0.1,0.5 z m -0.9,0.4 -0.1,0.7 v 0.6 l 0.1,1 q 0.2,0.4 0.6,0.4 0.7,0 1.6,-0.8 0.9,-0.8 1.6,-2.1 l 0.1,-0.4 0.4,-0.5 0.3,0.2 v 0.3 l -0.2,0.8 -0.8,1.2 q -0.9,1.1 -1.6,1.6 -0.7,0.5 -1.7,0.5 -1,0 -1.3,-0.5 -0.5,-0.6 -0.5,-1.6 0,-1.2 0.5,-2.7 0.5,-1.5 1.4,-2.8 0.2,-0.4 0.5,-0.6 l 0.6,-0.2 h 0.4 l 0.3,0.3 0.4,0.1 q 0.8,0.2 0.8,0.9 0,1.5 -0.9,2.7 -0.9,1.2 -1.7,1.3 l -0.4,-0.1 z"
     aria-label="Lernspiel Online"
     font-size="24.4px"
     font-family="'Freehand575 BT'"
     letter-spacing="0"
     word-spacing="0"
     fill="url(#b)"
     id="path3" />
</svg>
